# xmcd CD database file generated by Grip 3.0.1
# 
# Track frame offsets:
#       150
#       16047
#       33335
#       51372
#       65937
#       83960
#       100322
#       115707
#       130837
#       150405
#       165467
#       180035
#       195967
#       209110
#       226132
#       245202
# 
# Disc length: 3446 seconds
# 
# Revision: 3
# Processed by: cddbd v1.4PL0 Copyright (c) Steve Scherf et al.
# Submitted via: Grip 3.0.1
# 
DISCID=cc0d7410
DTITLE=Placido Domingo - 100 años de mariachi
DYEAR=1900
DGENRE=National Folk
TTITLE0=Paloma querida
TTITLE1=La malagueña
TTITLE2=Pa' todo el año
TTITLE3=De qué manera te olvido
TTITLE4=Cómo olvidar
TTITLE5=Tequila con limón
TTITLE6=La rondalla
TTITLE7=Ella
TTITLE8=Más fuerte que yo
TTITLE9=¡Ay, Jalisco no te rajes!
TTITLE10=El jinete
TTITLE11=Si nos dejan
TTITLE12=Cuando sale la luna
TTITLE13=Yo soy mexicano
TTITLE14=Amanecí en tus brazos
TTITLE15=La feria de las flores
EXTD=
EXTT0=
EXTT1=
EXTT2=
EXTT3=
EXTT4=
EXTT5=
EXTT6=
EXTT7=
EXTT8=
EXTT9=
EXTT10=
EXTT11=
EXTT12=
EXTT13=
EXTT14=
EXTT15=
PLAYORDER=
